# xmcd
#
# Track frame offsets: 
#        150
#        23919
#        46122
#        71302
#        75047
#        94542
#        116797
#        134657
#        162327
#
# Disc length: 2374 seconds
#
# Revision: 9
# Processed by: cddbd v1.5PL3 Copyright (c) Steve Scherf et al.
# Submitted via: ExactAudioCopy v0.95a3
#
DISCID=66094409
DTITLE=OZZY OZBOURNE - BLIZZARD OF OZZ
DYEAR=1981
DGENRE=Heavy Metal
TTITLE0=I don't know
TTITLE1=Crazy train
TTITLE2=Goodbye to romance
TTITLE3=Dee (Instrumental)
TTITLE4=Suicide solution
TTITLE5=Mr. Crouwley
TTITLE6=No bone movies
TTITLE7=Revelation (Mother earth)
TTITLE8=Steal away (The night)
EXTD=
EXTT0=
EXTT1=
EXTT2=
EXTT3=
EXTT4=
EXTT5=
EXTT6=
EXTT7=
EXTT8=
PLAYORDER=
